<svg width="20" height="20" viewBox="0 0 20 20" fill="none" xmlns="http://www.w3.org/2000/svg">
<rect width="20" height="20" fill="#1E1E1E"/>
<g id="Empty State" clip-path="url(#clip0_302_2)">
<rect width="1440" height="1024" transform="translate(-1400 -204)" fill="#F8EEE2"/>
<g id="Frame 3">
<g id="Frame 2">
<rect width="300" height="1024" transform="translate(-260 -204)" fill="#F8EEE2"/>
<g id="Frame 4">
<g id="Frame 6">
<g id="Frame 8">
<g id="Frame">
<path id="Vector" d="M12.0833 1.66666H4.99992C4.55789 1.66666 4.13397 1.84225 3.82141 2.15481C3.50885 2.46737 3.33325 2.8913 3.33325 3.33332V16.6667C3.33325 17.1087 3.50885 17.5326 3.82141 17.8452C4.13397 18.1577 4.55789 18.3333 4.99992 18.3333H14.9999C15.4419 18.3333 15.8659 18.1577 16.1784 17.8452C16.491 17.5326 16.6666 17.1087 16.6666 16.6667V6.24999L12.0833 1.66666Z" stroke="black" stroke-opacity="0.6" stroke-width="2" stroke-linecap="round" stroke-linejoin="round"/>
<path id="Vector_2" d="M11.6667 1.66666V6.66666H16.6667" stroke="black" stroke-opacity="0.6" stroke-width="2" stroke-linecap="round" stroke-linejoin="round"/>
<path id="Vector_3" d="M13.3334 10.8333H6.66675" stroke="black" stroke-opacity="0.6" stroke-width="2" stroke-linecap="round" stroke-linejoin="round"/>
<path id="Vector_4" d="M13.3334 14.1667H6.66675" stroke="black" stroke-opacity="0.6" stroke-width="2" stroke-linecap="round" stroke-linejoin="round"/>
<path id="Vector_5" d="M8.33341 7.5H6.66675" stroke="black" stroke-opacity="0.6" stroke-width="2" stroke-linecap="round" stroke-linejoin="round"/>
</g>
</g>
</g>
</g>
</g>
</g>
</g>
<defs>
<clipPath id="clip0_302_2">
<rect width="1440" height="1024" fill="white" transform="translate(-1400 -204)"/>
</clipPath>
</defs>
</svg>
